<?xml version="1.0" encoding="utf-8"?>
<!-- Generator: Adobe Illustrator 23.0.2, SVG Export Plug-In . SVG Version: 6.00 Build 0)  -->
<svg version="1.1" id="Laag_1" xmlns="http://www.w3.org/2000/svg" xmlns:xlink="http://www.w3.org/1999/xlink" x="0px" y="0px"
	 viewBox="0 0 40.57 40.37" style="enable-background:new 0 0 40.57 40.37;" xml:space="preserve">
<style type="text/css">
	.st0{fill:#E30613;}
	.st1{fill:#FFFFFF;}
	.st2{fill:#FFCF02;}
	.st3{fill:#562914;}
	.st4{fill:#CD352F;}
	.st5{fill:#F39200;}
	.st6{fill:url(#SVGID_1_);}
	.st7{clip-path:url(#SVGID_3_);}
	.st8{fill:#FFDD51;}
	.st9{fill:#FFFEFE;}
	.st10{fill:none;stroke:#E30613;stroke-width:0.5;stroke-miterlimit:10;}
</style>
<path class="st0" d="M-29.5,79.92l44.23-11.14L-7.25,48.42c-0.61-0.29-21.88,0.09-22.53-0.12l-6.17,0.03
	c-9.06,0-16.41,7.35-16.41,16.41c0,9.06,7.35,16.41,16.41,16.41c1.69,0,3.14-0.22,4.67-0.7L-29.5,79.92z"/>
<rect x="-81.98" y="-14.49" style="fill:none;" width="78.35" height="11.76"/>
<text transform="matrix(1 0 0 1 -81.9827 -6.5863)"><tspan x="0" y="0" class="st0" style="font-family:'PRIMETIME-Regular'; font-size:12px;">MAPPI</tspan><tspan x="41.89" y="0" class="st0" style="font-family:'PRIMETIME-Regular'; font-size:12px;">-</tspan></text>
<g>
	<g>
		<g>
			<path class="st0" d="M-43.86-21.3l-0.01-0.02C-43.86-21.31-43.86-21.31-43.86-21.3z"/>
			<path class="st0" d="M-40.37-22.01c0-1-0.81-1.82-1.82-1.82c-1,0-1.82,0.81-1.82,1.82c0,0.19,0.04,0.36,0.09,0.53h3.45
				C-40.41-21.65-40.37-21.83-40.37-22.01z"/>
			<path class="st0" d="M-40.55-21.24c0.03-0.07,0.06-0.14,0.08-0.21L-40.55-21.24z"/>
			<polygon class="st0" points="-40.46,-21.48 -40.46,-21.48 -43.92,-21.48 -43.93,-21.48 -43.87,-21.32 -43.86,-21.3 
				-42.19,-16.98 -40.55,-21.24 -40.47,-21.45 			"/>
		</g>
	</g>
	<circle class="st1" cx="-42.21" cy="-22.05" r="1.11"/>
</g>
<g>
	<g>
		<g>
			<path class="st2" d="M40.35,20.17c0,11.14-9.03,20.17-20.17,20.17C9.03,40.35,0,31.32,0,20.17C0,9.03,9.03,0,20.17,0
				C31.32,0,40.35,9.03,40.35,20.17z"/>
			<g>
				<g>
					<g>
						<path class="st3" d="M33.51,17.57c0.21,0.13,0.48-0.02,0.48-0.26c0,0,0,0,0-0.01c0-1.47-1.19-2.67-2.66-2.67
							c-1.47,0-2.66,1.19-2.66,2.67c0,0,0,0,0,0.01c0,0.25,0.28,0.39,0.49,0.26c0.63-0.39,1.38-0.62,2.18-0.62
							C32.13,16.96,32.87,17.18,33.51,17.57z"/>
					</g>
				</g>
				<g>
					<g>
						<path class="st3" d="M11.2,17.57c0.21,0.13,0.48-0.02,0.49-0.26c0,0,0,0,0-0.01c0-1.47-1.19-2.67-2.67-2.67
							c-1.47,0-2.66,1.19-2.66,2.67c0,0,0,0,0,0.01c0,0.25,0.28,0.39,0.49,0.26c0.63-0.39,1.38-0.62,2.18-0.62
							C9.82,16.96,10.56,17.18,11.2,17.57z"/>
					</g>
				</g>
			</g>
			<g>
				<g>
					<path class="st3" d="M9.86,23.23c-0.64,0.22-1.01,0.92-0.76,1.55c1.5,3.8,5.91,7.01,11.08,7.01c5.17,0,9.57-3.2,11.08-7.01
						c0.25-0.63-0.12-1.34-0.76-1.55C24.26,21.12,16.09,21.12,9.86,23.23z"/>
				</g>
			</g>
			<g>
				<g>
					<path class="st4" d="M14.63,30.49c1.65,0.81,3.54,1.3,5.55,1.3c2.01,0,3.9-0.49,5.55-1.3c-1.53-1.15-3.45-1.84-5.55-1.84
						C18.08,28.64,16.15,29.34,14.63,30.49z"/>
				</g>
			</g>
		</g>
		<path class="st5" d="M20.47,0c11.14,0,19.98,8.92,19.98,20.06c0,11.14-9.03,20.17-20.17,20.17L20.47,0z"/>
		<linearGradient id="SVGID_1_" gradientUnits="userSpaceOnUse" x1="28.1285" y1="20.1141" x2="35.5429" y2="20.1141">
			<stop  offset="0" style="stop-color:#BF9B07"/>
			<stop  offset="0.0746" style="stop-color:#CBA406"/>
			<stop  offset="0.246" style="stop-color:#E1B604"/>
			<stop  offset="0.4369" style="stop-color:#F2C403"/>
			<stop  offset="0.6611" style="stop-color:#FCCC02"/>
			<stop  offset="1" style="stop-color:#FFCF02"/>
		</linearGradient>
		<path class="st6" d="M28.3,1.54c3.61,1.8,4.91,2.83,6.6,4.66l0.63,27.02c-2.34,2.66-4.43,4.3-7.41,5.47L28.3,1.54z"/>
		<g>
			<defs>
				<path id="SVGID_2_" d="M20.37,0.14c11.26,0,20.2,8.92,20.2,20.06c0,11.14-9.13,20.17-20.4,20.17L20.37,0.14z"/>
			</defs>
			<clipPath id="SVGID_3_">
				<use xlink:href="#SVGID_2_"  style="overflow:visible;"/>
			</clipPath>
			<g class="st7">
				<polygon class="st8" points="41.23,19.13 19.49,10.86 20.01,9.53 41.75,17.79 				"/>
				<polygon class="st8" points="40.92,11.03 19.18,2.77 19.7,1.43 41.44,9.69 				"/>
				<polygon class="st8" points="40.98,31.87 25.07,25.82 25.6,24.45 41.52,30.5 				"/>
				<polygon class="st8" points="23.96,43.31 35.44,15.31 36.88,15.89 25.4,43.89 				"/>
				<polygon class="st8" points="24.21,57.75 35.68,29.75 37.12,30.33 25.65,58.33 				"/>
				<polygon class="st8" points="18.65,41.44 30.13,13.44 31.57,14.02 20.09,42.02 				"/>
				<polygon class="st8" points="18.71,29.85 30.74,0.52 32.04,1.04 20.01,30.37 				"/>
			</g>
		</g>
	</g>
	<path class="st0" d="M32.19,24.2c0-0.73-0.63-1.32-1.4-1.32s-1.4,0.59-1.4,1.32c0,0.14,0.03,0.27,0.07,0.39h-0.01l0.05,0.12
		l0.01,0.01l1.29,3.14l1.27-3.1c0.02-0.05,0.04-0.1,0.06-0.15l0.01-0.02h0C32.16,24.47,32.19,24.34,32.19,24.2z M30.77,24.98
		c-0.47,0-0.86-0.36-0.86-0.8c0-0.44,0.38-0.8,0.86-0.8s0.86,0.36,0.86,0.8C31.62,24.62,31.24,24.98,30.77,24.98z"/>
</g>
<g>
	<path class="st0" d="M-73.33,69.69V64.9l-1.99,3.29c-0.02,0.05-0.06,0.08-0.12,0.1c-0.06,0.02-0.1,0.02-0.14,0.02
		c-0.05,0-0.1-0.01-0.16-0.02c-0.06-0.02-0.1-0.05-0.12-0.1l-1.99-3.29v4.79h-2.44v-9.31h2.28c0.08,0,0.15,0.04,0.2,0.11l2.21,3.68
		l2.22-3.68c0.06-0.07,0.12-0.11,0.19-0.11h2.29v9.31H-73.33z"/>
	<path class="st0" d="M-63.45,69.69l-0.48-1.28h-2.87l-0.48,1.28h-2.63l3.44-9.31h2.2l3.44,9.31H-63.45z M-65.36,63.77l-0.74,2.46
		h1.48L-65.36,63.77z"/>
	<path class="st0" d="M-55.47,66.8h-1.69v2.89h-2.5v-9.31h4.19c0.45,0,0.88,0.08,1.29,0.23c0.41,0.15,0.78,0.36,1.09,0.64
		c0.32,0.27,0.57,0.6,0.76,0.98c0.19,0.38,0.28,0.8,0.28,1.26c0,0.46-0.09,0.9-0.28,1.3c-0.19,0.4-0.44,0.75-0.76,1.05
		s-0.68,0.54-1.09,0.71C-54.6,66.71-55.03,66.8-55.47,66.8z M-55.65,62.45h-1.45v2.02h1.45c0.14,0,0.28-0.03,0.41-0.08
		c0.13-0.05,0.24-0.12,0.34-0.22c0.1-0.09,0.17-0.2,0.23-0.32c0.06-0.12,0.08-0.25,0.08-0.4c0-0.14-0.03-0.28-0.08-0.4
		c-0.06-0.12-0.13-0.23-0.23-0.32s-0.21-0.16-0.34-0.22S-55.51,62.45-55.65,62.45z"/>
	<path class="st9" d="M-46.83,66.8h-1.69v2.89h-2.5v-9.31h4.19c0.45,0,0.88,0.08,1.29,0.23c0.41,0.15,0.78,0.36,1.09,0.64
		c0.32,0.27,0.57,0.6,0.76,0.98c0.19,0.38,0.28,0.8,0.28,1.26c0,0.46-0.09,0.9-0.28,1.3c-0.19,0.4-0.44,0.75-0.76,1.05
		s-0.68,0.54-1.09,0.71C-45.96,66.71-46.39,66.8-46.83,66.8z M-47.02,62.45h-1.45v2.02h1.45c0.14,0,0.28-0.03,0.41-0.08
		c0.13-0.05,0.24-0.12,0.34-0.22c0.1-0.09,0.17-0.2,0.23-0.32c0.06-0.12,0.08-0.25,0.08-0.4c0-0.14-0.03-0.28-0.08-0.4
		c-0.06-0.12-0.13-0.23-0.23-0.32s-0.21-0.16-0.34-0.22S-46.87,62.45-47.02,62.45z"/>
	<path class="st9" d="M-42.42,69.69v-9.31h2.51v9.31H-42.42z"/>
	<path class="st9" d="M-32.7,69.68l-3.23-4.97v4.97h-2.48v-9.3h2.47l3.24,5.02v-5.02h2.5v9.3H-32.7z"/>
	<path class="st9" d="M-28.87,69.69v-9.31h7.43v2.22h-5v1.33h4.72v2.22h-4.72v1.33h5v2.21H-28.87z"/>
	<path class="st9" d="M-16.8,69.98c-0.62,0-1.24-0.07-1.85-0.22c-0.61-0.15-1.2-0.35-1.76-0.62c-0.02,0-0.06-0.02-0.12-0.05
		c-0.06-0.04-0.1-0.07-0.1-0.08c0-0.01,0.02-0.04,0.05-0.1s0.07-0.13,0.12-0.21s0.1-0.18,0.17-0.29s0.13-0.22,0.19-0.33
		c0.14-0.22,0.26-0.44,0.38-0.64s0.2-0.34,0.25-0.43c0.1,0.04,0.2,0.09,0.3,0.14c0.43,0.22,0.87,0.38,1.3,0.5
		c0.44,0.12,0.9,0.17,1.39,0.17c0.14,0,0.28-0.01,0.44-0.02c0.16-0.01,0.3-0.04,0.43-0.09c0.13-0.05,0.23-0.12,0.32-0.22
		c0.08-0.1,0.13-0.24,0.13-0.43c0-0.09-0.02-0.17-0.07-0.23c-0.05-0.07-0.11-0.13-0.18-0.18s-0.15-0.1-0.23-0.14
		c-0.08-0.04-0.16-0.07-0.23-0.1c-0.17-0.06-0.34-0.11-0.52-0.14c-0.18-0.03-0.35-0.07-0.53-0.11c-0.23-0.06-0.46-0.11-0.68-0.16
		c-0.22-0.05-0.44-0.1-0.65-0.17c-0.22-0.06-0.42-0.13-0.62-0.21s-0.38-0.17-0.55-0.27c-0.34-0.21-0.62-0.49-0.82-0.83
		c-0.2-0.35-0.31-0.81-0.31-1.39c0-0.2,0.02-0.4,0.07-0.61s0.11-0.4,0.2-0.58c0.18-0.37,0.4-0.67,0.68-0.91
		c0.28-0.24,0.59-0.43,0.93-0.56s0.7-0.23,1.07-0.29s0.75-0.08,1.13-0.08c0.62,0,1.22,0.07,1.82,0.22c0.6,0.15,1.17,0.39,1.72,0.73
		c-0.2,0.34-0.39,0.67-0.58,1c-0.19,0.33-0.38,0.66-0.57,0.99c-0.46-0.22-0.91-0.41-1.35-0.55c-0.44-0.14-0.91-0.22-1.41-0.22
		c-0.12,0-0.25,0.01-0.38,0.02c-0.13,0.01-0.25,0.04-0.37,0.09c-0.11,0.05-0.2,0.12-0.28,0.21c-0.07,0.09-0.11,0.21-0.11,0.37
		c0,0.11,0.02,0.21,0.07,0.29c0.06,0.09,0.16,0.17,0.31,0.23c0.15,0.07,0.33,0.13,0.55,0.19c0.22,0.06,0.45,0.11,0.71,0.16
		s0.52,0.11,0.8,0.19c0.27,0.07,0.55,0.15,0.82,0.25c0.28,0.09,0.54,0.2,0.78,0.33s0.46,0.29,0.65,0.47
		c0.19,0.18,0.34,0.39,0.46,0.64c0.09,0.18,0.15,0.38,0.18,0.59c0.03,0.21,0.05,0.42,0.05,0.63c0,0.61-0.12,1.11-0.37,1.5
		s-0.57,0.7-0.97,0.93c-0.4,0.23-0.85,0.39-1.36,0.48C-15.79,69.93-16.3,69.98-16.8,69.98z"/>
	<path class="st9" d="M-8.65,69.98c-0.62,0-1.24-0.07-1.85-0.22c-0.61-0.15-1.2-0.35-1.76-0.62c-0.02,0-0.06-0.02-0.12-0.05
		c-0.06-0.04-0.1-0.07-0.1-0.08c0-0.01,0.02-0.04,0.05-0.1s0.07-0.13,0.12-0.21s0.1-0.18,0.17-0.29s0.13-0.22,0.19-0.33
		c0.14-0.22,0.26-0.44,0.38-0.64s0.2-0.34,0.25-0.43c0.1,0.04,0.2,0.09,0.3,0.14c0.43,0.22,0.87,0.38,1.3,0.5
		c0.44,0.12,0.9,0.17,1.39,0.17c0.14,0,0.28-0.01,0.44-0.02c0.16-0.01,0.3-0.04,0.43-0.09c0.13-0.05,0.23-0.12,0.32-0.22
		c0.08-0.1,0.13-0.24,0.13-0.43c0-0.09-0.02-0.17-0.07-0.23c-0.05-0.07-0.11-0.13-0.18-0.18s-0.15-0.1-0.23-0.14
		c-0.08-0.04-0.16-0.07-0.23-0.1c-0.17-0.06-0.34-0.11-0.52-0.14c-0.18-0.03-0.35-0.07-0.53-0.11c-0.23-0.06-0.46-0.11-0.68-0.16
		c-0.22-0.05-0.44-0.1-0.65-0.17c-0.22-0.06-0.42-0.13-0.62-0.21s-0.38-0.17-0.55-0.27c-0.34-0.21-0.62-0.49-0.82-0.83
		c-0.2-0.35-0.31-0.81-0.31-1.39c0-0.2,0.02-0.4,0.07-0.61s0.11-0.4,0.2-0.58c0.18-0.37,0.4-0.67,0.68-0.91
		c0.28-0.24,0.59-0.43,0.93-0.56s0.7-0.23,1.07-0.29s0.75-0.08,1.13-0.08c0.62,0,1.22,0.07,1.82,0.22c0.6,0.15,1.17,0.39,1.72,0.73
		c-0.2,0.34-0.39,0.67-0.58,1c-0.19,0.33-0.38,0.66-0.57,0.99c-0.46-0.22-0.91-0.41-1.35-0.55c-0.44-0.14-0.91-0.22-1.41-0.22
		c-0.12,0-0.25,0.01-0.38,0.02c-0.13,0.01-0.25,0.04-0.37,0.09c-0.11,0.05-0.2,0.12-0.28,0.21c-0.07,0.09-0.11,0.21-0.11,0.37
		c0,0.11,0.02,0.21,0.07,0.29c0.06,0.09,0.16,0.17,0.31,0.23c0.15,0.07,0.33,0.13,0.55,0.19c0.22,0.06,0.45,0.11,0.71,0.16
		s0.52,0.11,0.8,0.19c0.27,0.07,0.55,0.15,0.82,0.25c0.28,0.09,0.54,0.2,0.78,0.33s0.46,0.29,0.65,0.47
		c0.19,0.18,0.34,0.39,0.46,0.64c0.09,0.18,0.15,0.38,0.18,0.59c0.03,0.21,0.05,0.42,0.05,0.63c0,0.61-0.12,1.11-0.37,1.5
		s-0.57,0.7-0.97,0.93c-0.4,0.23-0.85,0.39-1.36,0.48C-7.64,69.93-8.15,69.98-8.65,69.98z"/>
</g>
<rect x="-81.98" y="-14.49" style="fill:none;" width="78.35" height="11.76"/>
<text transform="matrix(1 0 0 1 -81.9827 -6.5863)"><tspan x="0" y="0" class="st0" style="font-family:'PRIMETIME-Regular'; font-size:12px;">MAPPI</tspan><tspan x="41.89" y="0" class="st0" style="font-family:'PRIMETIME-Regular'; font-size:12px;">-</tspan></text>
<g>
	<g>
		<g>
			<path class="st0" d="M-43.86-21.3l-0.01-0.02C-43.86-21.31-43.86-21.31-43.86-21.3z"/>
			<path class="st0" d="M-40.37-22.01c0-1-0.81-1.82-1.82-1.82c-1,0-1.82,0.81-1.82,1.82c0,0.19,0.04,0.36,0.09,0.53h3.45
				C-40.41-21.65-40.37-21.83-40.37-22.01z"/>
			<path class="st0" d="M-40.55-21.24c0.03-0.07,0.06-0.14,0.08-0.21L-40.55-21.24z"/>
			<polygon class="st0" points="-40.46,-21.48 -40.46,-21.48 -43.92,-21.48 -43.93,-21.48 -43.87,-21.32 -43.86,-21.3 
				-42.19,-16.98 -40.55,-21.24 -40.47,-21.45 			"/>
		</g>
	</g>
	<circle class="st1" cx="-42.21" cy="-22.05" r="1.11"/>
</g>
<path class="st10" d="M-53.33,66.86c1.04,8.63,8.39,15.32,17.3,15.32c1.8,0,3.34-0.16,4.97-0.67l2.04-0.65l46.32-11.52L-6.56,47.47
	c-0.65-0.31-22.22,0.03-22.91-0.19l-6.55,0.03c-7.95,0-14.66,5.32-16.75,12.59"/>
</svg>
